<?xml version="1.0" encoding="UTF-8" standalone="no"?>
<!-- Created with Inkscape (http://www.inkscape.org/) -->

<svg
   width="469.23901"
   height="603.28979"
   viewBox="0 0 124.15297 159.62043"
   version="1.1"
   id="svg1"
   xml:space="preserve"
   sodipodi:docname="favicon.svg"
   inkscape:version="1.2.2 (732a01da63, 2022-12-09)"
   xmlns:inkscape="http://www.inkscape.org/namespaces/inkscape"
   xmlns:sodipodi="http://sodipodi.sourceforge.net/DTD/sodipodi-0.dtd"
   xmlns="http://www.w3.org/2000/svg"
   xmlns:svg="http://www.w3.org/2000/svg"><sodipodi:namedview
     id="namedview1"
     pagecolor="#505050"
     bordercolor="#ffffff"
     borderopacity="1"
     inkscape:showpageshadow="0"
     inkscape:pageopacity="0"
     inkscape:pagecheckerboard="1"
     inkscape:deskcolor="#d1d1d1"
     inkscape:document-units="mm"
     showgrid="false"
     inkscape:zoom="0.72406002"
     inkscape:cx="1278.209"
     inkscape:cy="524.81837"
     inkscape:window-width="3440"
     inkscape:window-height="1377"
     inkscape:window-x="-8"
     inkscape:window-y="-8"
     inkscape:window-maximized="1"
     inkscape:current-layer="text434" /><defs
     id="defs1" /><g
     inkscape:label="Warstwa 1"
     inkscape:groupmode="layer"
     id="layer1"
     transform="translate(-0.75936746,-3.5815225)"><g
       aria-label="s"
       id="text356"
       style="font-size:11.8174px;line-height:1.25;font-family:'Segoe UI';-inkscape-font-specification:'Segoe UI';fill:#ffffff;fill-opacity:1;stroke-width:0.295435"
       transform="matrix(9.7067348,0,0,9.7067348,-644.65167,-1081.3711)"><path
         d="m 66.491055,117.60686 v -1.01556 q 0.773209,0.57125 1.702214,0.57125 1.246366,0 1.246366,-0.83091 0,-0.23658 -0.109634,-0.39814 -0.103864,-0.16734 -0.288511,-0.29428 -0.178876,-0.12695 -0.426996,-0.22504 -0.242349,-0.10387 -0.525089,-0.2135 -0.392375,-0.1558 -0.692426,-0.31159 -0.294281,-0.16157 -0.496238,-0.35775 -0.196188,-0.20196 -0.300052,-0.45585 -0.09809,-0.25389 -0.09809,-0.59433 0,-0.41546 0.190417,-0.73282 0.190417,-0.32313 0.507779,-0.53663 0.317362,-0.21927 0.721277,-0.3289 0.409685,-0.10964 0.842451,-0.10964 0.767439,0 1.373311,0.26543 v 0.95786 q -0.652034,-0.427 -1.500256,-0.427 -0.26543,0 -0.478928,0.0635 -0.213497,0.0577 -0.369293,0.16733 -0.150026,0.10964 -0.236579,0.26543 -0.08078,0.15003 -0.08078,0.33467 0,0.23081 0.08078,0.38661 0.08655,0.15579 0.248119,0.27697 0.161566,0.12117 0.392375,0.21927 0.230808,0.0981 0.525089,0.21349 0.392375,0.15003 0.703967,0.3116 0.311591,0.15579 0.530859,0.35775 0.219268,0.19619 0.334673,0.45585 0.121174,0.25966 0.121174,0.61741 0,0.43854 -0.196187,0.76167 -0.190417,0.32313 -0.513549,0.53663 -0.323132,0.2135 -0.744358,0.31736 -0.421226,0.10386 -0.882843,0.10386 -0.911694,0 -1.581039,-0.35198 z"
         style="fill:#ffffff;fill-opacity:1"
         id="path1093" /></g><g
       aria-label="C"
       id="text434"
       style="font-weight:600;font-size:17.9495px;line-height:1.25;font-family:'Segoe UI';-inkscape-font-specification:'Segoe UI Semi-Bold';fill:#ffffff;fill-opacity:1;stroke-width:0.448739"
       transform="matrix(9.7067348,0,0,9.7067348,-212.08886,-1160.1937)"><path
         d="m 34.330712,135.60168 c -0.946555,0.49081 -2.123907,0.73621 -3.532054,0.73621 -1.822996,0 -3.28373,-0.57553 -4.382202,-1.72658 -1.098472,-1.15106 -1.647708,-2.66146 -1.647708,-4.5312 0,-2.00997 0.61643,-3.63431 1.849289,-4.87301 1.238702,-1.2387 3.009086,-1.92553 4.688956,-1.85805 1.266473,0.0509 2.804611,1.01213 3.411302,1.67985 l -0.936658,1.64852 c -0.847226,-0.5025 -1.720428,-1.1674 -2.707714,-1.20592 -1.011083,-0.0394 -2.013539,0.14461 -2.860765,1.0152 -0.841383,0.8706 -1.262074,2.03335 -1.262074,3.48824 0,1.38477 0.394398,2.48909 1.183195,3.31294 0.788796,0.81801 1.30914,1.16242 2.594586,1.16242 1.186116,0 2.214473,-0.28046 3.08507,-0.84138 z"
         style="fill:#ffffff;fill-opacity:1"
         id="path994"
         sodipodi:nodetypes="cssscaccacscscc" /></g></g></svg>
